<svg id="undraw_secure_login_pdn4_2_" data-name="undraw_secure_login_pdn4 (2)" xmlns="http://www.w3.org/2000/svg" width="500" height="347.876" viewBox="0 0 500 347.876">
  <ellipse id="Ellipse_1" data-name="Ellipse 1" cx="99.622" cy="7.566" rx="99.622" ry="7.566" transform="translate(0 332.744)" fill="#e6e6e6"/>
  <path id="Path_1" data-name="Path 1" d="M204.459,186.982c17.337-7.374,38.931-2.7,60.019.541.2-3.927,2.575-8.706.083-11.446-3.027-3.328-2.749-6.826-.927-10.343,4.658-8.994-2.016-18.565-8.754-26.523a14.924,14.924,0,0,0-12.456-5.228l-12.483.892a14.949,14.949,0,0,0-13.274,10.685h0c-2.981,4.054-4.576,8.1-3.571,12.118-4.464,3.051-5.215,6.734-3.208,10.885a6.257,6.257,0,0,1-.077,7.633,35.241,35.241,0,0,0-5.24,10.407Z" transform="translate(-128.31 -109.795)" fill="#2f2e41"/>
  <path id="Path_2" data-name="Path 2" d="M616.462,410.528H263.109a11.848,11.848,0,0,1-11.848-11.848h0q192.136-22.33,377.049,0h0a11.848,11.848,0,0,1-11.848,11.848Z" transform="translate(-128.31 -109.795)" fill="#2f2e41"/>
  <path id="Path_3" data-name="Path 3" d="M628.31,399.376l-377.049-.7,43.7-73.528.209-.348V162.756a14.976,14.976,0,0,1,14.979-14.977H567.334a14.977,14.977,0,0,1,14.977,14.979V325.918Z" transform="translate(-128.31 -109.795)" fill="#3f3d56"/>
  <path id="Path_4" data-name="Path 4" d="M309.8,158.233a4.884,4.884,0,0,0-4.879,4.879V310.864a4.884,4.884,0,0,0,4.879,4.879H569.767a4.885,4.885,0,0,0,4.879-4.879V163.111a4.884,4.884,0,0,0-4.879-4.879Z" transform="translate(-128.31 -109.795)" fill="#fff"/>
  <path id="Path_5" data-name="Path 5" d="M310.894,335.257a2.1,2.1,0,0,0-1.9,1.217L295.53,365.746a2.091,2.091,0,0,0,1.9,2.965h283.16a2.091,2.091,0,0,0,1.87-3.026l-14.636-29.272a2.08,2.08,0,0,0-1.87-1.156Z" transform="translate(-128.31 -109.795)" fill="#2f2e41"/>
  <circle id="Ellipse_2" data-name="Ellipse 2" cx="3.136" cy="3.136" r="3.136" transform="translate(307.294 39.726)" fill="#fff"/>
  <path id="Path_6" data-name="Path 6" d="M410.908,374.287a2.094,2.094,0,0,0-2.019,1.547l-3.378,12.545a2.091,2.091,0,0,0,2.019,2.635h64.233a2.09,2.09,0,0,0,1.975-2.775L469.4,375.694a2.092,2.092,0,0,0-1.976-1.407Z" transform="translate(-128.31 -109.795)" fill="#2f2e41"/>
  <path id="Path_7" data-name="Path 7" d="M454,212.569v2.788H166.649l.216-.348v-2.439Z" transform="translate(0 0)" fill="#2f2e41"/>
  <circle id="Ellipse_3" data-name="Ellipse 3" cx="48.786" cy="48.786" r="48.786" transform="translate(397.2)" fill="#f3f4f5"/>
  <path id="Path_8" data-name="Path 8" d="M594.508,179.838H554.085a2.791,2.791,0,0,1-2.788-2.788V152.657a2.791,2.791,0,0,1,2.788-2.788h40.423a2.791,2.791,0,0,1,2.788,2.788V177.05a2.79,2.79,0,0,1-2.788,2.788Zm-40.423-27.181V177.05H594.51l0-24.393Z" transform="translate(-128.31 -109.795)" fill="#fff"/>
  <path id="Path_9" data-name="Path 9" d="M586.842,152.657h-25.09V141.506c0-8.077,5.276-13.939,12.545-13.939s12.545,5.862,12.545,13.939Zm-22.3-2.788h19.515v-8.364c0-6.566-4.012-11.151-9.757-11.151s-9.757,4.586-9.757,11.151Z" transform="translate(-128.31 -109.795)" fill="#fff"/>
  <circle id="Ellipse_4" data-name="Ellipse 4" cx="2.788" cy="2.788" r="2.788" transform="translate(443.199 51.574)" fill="#fff"/>
  <path id="Path_10" data-name="Path 10" d="M540.24,265.627H339.332a3.725,3.725,0,0,1-3.721-3.72V212.069a3.725,3.725,0,0,1,3.721-3.721H540.24a3.725,3.725,0,0,1,3.721,3.721v49.837A3.725,3.725,0,0,1,540.24,265.627ZM339.332,209.837a2.235,2.235,0,0,0-2.232,2.232v49.836a2.235,2.235,0,0,0,2.232,2.232H540.24a2.235,2.235,0,0,0,2.232-2.232V212.069a2.235,2.235,0,0,0-2.232-2.232Z" transform="translate(-128.31 -109.795)" fill="#e6e6e6"/>
  <circle id="Ellipse_5" data-name="Ellipse 5" cx="15.155" cy="15.155" r="15.155" transform="translate(227.083 110.125)" fill="#e6e6e6"/>
  <path id="Path_11" data-name="Path 11" d="M405.55,224.972a2.526,2.526,0,1,0,0,5.052H524.629a2.526,2.526,0,0,0,0-5.052Z" transform="translate(-128.31 -109.795)" fill="#e6e6e6"/>
  <path id="Path_12" data-name="Path 12" d="M405.55,240.127a2.526,2.526,0,1,0,0,5.052h51.24a2.526,2.526,0,1,0,0-5.052Z" transform="translate(-128.31 -109.795)" fill="#e6e6e6"/>
  <path id="Path_13" data-name="Path 13" d="M294.465,241.149l-37.139,19.745-.47-16.454a109.991,109.991,0,0,0,34.319-11.283l3.884-9.6a6.505,6.505,0,0,1,11.057-1.688h0a6.505,6.505,0,0,1-.573,8.871Z" transform="translate(-128.31 -109.795)" fill="#ffb8b8"/>
  <path id="Path_14" data-name="Path 14" d="M203.719,355.149h0a7.3,7.3,0,0,1,.926-5.9l8.158-12.521a14.257,14.257,0,0,1,18.5-4.88h0c-3.429,5.836-2.951,10.956,1.184,15.406a74.167,74.167,0,0,0-17.614,12.008,7.3,7.3,0,0,1-11.151-4.11Z" transform="translate(-128.31 -109.795)" fill="#2f2e41"/>
  <path id="Path_15" data-name="Path 15" d="M296.157,338.779h0a14,14,0,0,1-11.9,6.8l-54.2.411-2.351-13.633,23.976-7.052L231.47,309.787l22.1-25.857,40.132,37.4a14,14,0,0,1,2.46,17.444Z" transform="translate(-128.31 -109.795)" fill="#2f2e41"/>
  <path id="Path_16" data-name="Path 16" d="M221.6,432.017H208.9c-11.4-78.12-23-156.458,11.283-185.7l40.43,6.582-5.171,34.319-22.566,25.857Z" transform="translate(-128.31 -109.795)" fill="#2f2e41"/>
  <path id="Path_17" data-name="Path 17" d="M232.755,449.714h0a7.3,7.3,0,0,1-5.9-.926l-13.782-1.853a14.257,14.257,0,0,1-4.881-18.5h0c5.837,3.428,10.957,2.95,15.406-1.185,3.144,6.348,8.323,5.96,13.27,11.308a7.3,7.3,0,0,1-4.109,11.151Z" transform="translate(-128.31 -109.795)" fill="#2f2e41"/>
  <path id="Path_18" data-name="Path 18" d="M251.685,194.137,228.179,188.5c3.9-7.991,4.225-16.883,2.351-26.327l15.984-.47C247.014,173.443,248.529,184.414,251.685,194.137Z" transform="translate(-128.31 -109.795)" fill="#ffb8b8"/>
  <path id="Path_19" data-name="Path 19" d="M258.145,267.057c-17.111,11.66-29.2.4-38.428-16.976,1.282-10.632-.794-23.355-4.639-37.179a25.307,25.307,0,0,1,15.451-30.518h0l20.215,8.462c17.165,13.991,20.544,29.147,14.1,45.131Z" transform="translate(-128.31 -109.795)" fill="#f3f4f5"/>
  <path id="Path_20" data-name="Path 20" d="M208.9,205.89l-18.8,9.873,33.378,19.745,4.644,11.456a6.076,6.076,0,0,1-3.65,8.027h0a6.076,6.076,0,0,1-8.046-5.387l-.47-7.984-42.424-14a9.92,9.92,0,0,1-6.225-6.06h0a9.92,9.92,0,0,1,3.722-11.54l34.114-23.4Z" transform="translate(-128.31 -109.795)" fill="#ffb8b8"/>
  <path id="Path_21" data-name="Path 21" d="M227.709,207.77c-7.843-3.437-14.974.3-23.976,3.291l-1.41-24.916c8.938-4.764,17.46-6.048,25.386-2.351Z" transform="translate(-128.31 -109.795)" fill="#f3f4f5"/>
  <circle id="Ellipse_6" data-name="Ellipse 6" cx="15.008" cy="15.008" r="15.008" transform="translate(93.772 34.231)" fill="#ffb8b8"/>
  <path id="Path_22" data-name="Path 22" d="M255.044,157.14c-14.859,1.455-26.181-.975-33.417-7.894v-5.572h32.156Z" transform="translate(-128.31 -109.795)" fill="#2f2e41"/>
</svg>
